<svg xmlns="http://www.w3.org/2000/svg">
  <defs>
    <!-- Astro icon -->
    <symbol id="astro" viewBox="0 0 128 128">
      <defs>
        <linearGradient id="b" x1="1001.68" x2="790.326" y1="652.45" y2="1094.91" gradientTransform="scale(.1)"
          gradientUnits="userSpaceOnUse">
          <stop offset="0" stop-color="#ff1639"></stop>
          <stop offset="1" stop-color="#ff1639" stop-opacity="0"></stop>
        </linearGradient>
      </defs>
      <path fill="currentColor"
        d="M81.504 9.465c.973 1.207 1.469 2.836 2.457 6.09l21.656 71.136a90.079 90.079 0 0 0-25.89-8.765L65.629 30.28a1.833 1.833 0 0 0-3.52.004L48.18 77.902a90.104 90.104 0 0 0-26.003 8.778l21.758-71.14c.996-3.25 1.492-4.876 2.464-6.083a8.023 8.023 0 0 1 3.243-2.398c1.433-.575 3.136-.575 6.535-.575H71.72c3.402 0 5.105 0 6.543.579a7.988 7.988 0 0 1 3.242 2.402Zm0 0">
      </path>
      <path fill="#ff5d01"
        d="M84.094 90.074c-3.57 3.055-10.696 5.137-18.903 5.137-10.07 0-18.515-3.137-20.754-7.356-.8 2.418-.98 5.184-.98 6.954 0 0-.527 8.675 5.508 14.71a5.671 5.671 0 0 1 5.672-5.671c5.37 0 5.367 4.683 5.363 8.488v.336c0 5.773 3.527 10.719 8.543 12.805a11.62 11.62 0 0 1-1.172-5.098c0-5.508 3.23-7.555 6.988-9.938 2.989-1.894 6.309-4 8.594-8.222a15.513 15.513 0 0 0 1.875-7.41 15.55 15.55 0 0 0-.734-4.735Zm0 0">
      </path>
      <path fill="url(#b)"
        d="M84.094 90.074c-3.57 3.055-10.696 5.137-18.903 5.137-10.07 0-18.515-3.137-20.754-7.356-.8 2.418-.98 5.184-.98 6.954 0 0-.527 8.675 5.508 14.71a5.671 5.671 0 0 1 5.672-5.671c5.37 0 5.367 4.683 5.363 8.488v.336c0 5.773 3.527 10.719 8.543 12.805a11.62 11.62 0 0 1-1.172-5.098c0-5.508 3.23-7.555 6.988-9.938 2.989-1.894 6.309-4 8.594-8.222a15.513 15.513 0 0 0 1.875-7.41 15.55 15.55 0 0 0-.734-4.735Zm0 0">
      </path>
    </symbol>

    <!-- Typescript icon -->
    <symbol id="typescript" viewBox="0 0 128 128">
      <path fill="#fff" d="M22.67 47h99.67v73.67H22.67z"></path>
      <path fill="#007acc"
        d="M1.5 63.91v62.5h125v-125H1.5zm100.73-5a15.56 15.56 0 017.82 4.5 20.58 20.58 0 013 4c0 .16-5.4 3.81-8.69 5.85-.12.08-.6-.44-1.13-1.23a7.09 7.09 0 00-5.87-3.53c-3.79-.26-6.23 1.73-6.21 5a4.58 4.58 0 00.54 2.34c.83 1.73 2.38 2.76 7.24 4.86 8.95 3.85 12.78 6.39 15.16 10 2.66 4 3.25 10.46 1.45 15.24-2 5.2-6.9 8.73-13.83 9.9a38.32 38.32 0 01-9.52-.1 23 23 0 01-12.72-6.63c-1.15-1.27-3.39-4.58-3.25-4.82a9.34 9.34 0 011.15-.73L82 101l3.59-2.08.75 1.11a16.78 16.78 0 004.74 4.54c4 2.1 9.46 1.81 12.16-.62a5.43 5.43 0 00.69-6.92c-1-1.39-3-2.56-8.59-5-6.45-2.78-9.23-4.5-11.77-7.24a16.48 16.48 0 01-3.43-6.25 25 25 0 01-.22-8c1.33-6.23 6-10.58 12.82-11.87a31.66 31.66 0 019.49.26zm-29.34 5.24v5.12H56.66v46.23H45.15V69.26H28.88v-5a49.19 49.19 0 01.12-5.17C29.08 59 39 59 51 59h21.83z">
      </path>
    </symbol>

    <!-- SolidJS icon -->
    <symbol id="solidjs" viewBox="0 0 128 128">
      <defs>
        <linearGradient id="a" x1="27.5" x2="152" y1="3" y2="63.5"
          gradientTransform="translate(-3.22 1.507) scale(.80503)" gradientUnits="userSpaceOnUse">
          <stop offset=".1" stop-color="#76b3e1"></stop>
          <stop offset=".3" stop-color="#dcf2fd"></stop>
          <stop offset="1" stop-color="#76b3e1"></stop>
        </linearGradient>
        <linearGradient id="b" x1="95.8" x2="74" y1="32.6" y2="105.2"
          gradientTransform="translate(-3.22 1.507) scale(.80503)" gradientUnits="userSpaceOnUse">
          <stop offset="0" stop-color="#76b3e1"></stop>
          <stop offset=".5" stop-color="#4377bb"></stop>
          <stop offset="1" stop-color="#1f3b77"></stop>
        </linearGradient>
        <linearGradient id="c" x1="18.4" x2="144.3" y1="64.2" y2="149.8"
          gradientTransform="translate(-3.22 1.507) scale(.80503)" gradientUnits="userSpaceOnUse">
          <stop offset="0" stop-color="#315aa9"></stop>
          <stop offset=".5" stop-color="#518ac8"></stop>
          <stop offset="1" stop-color="#315aa9"></stop>
        </linearGradient>
        <linearGradient id="d" x1="75.2" x2="24.4" y1="74.5" y2="260.8"
          gradientTransform="translate(-3.22 1.507) scale(.80503)" gradientUnits="userSpaceOnUse">
          <stop offset="0" stop-color="#4377bb"></stop>
          <stop offset=".5" stop-color="#1a336b"></stop>
          <stop offset="1" stop-color="#1a336b"></stop>
        </linearGradient>
      </defs>
      <path fill="#76b3e1"
        d="M128 29.683S85.333-1.713 52.327 5.532l-2.415.805c-4.83 1.61-8.855 4.025-11.27 7.245l-1.61 2.415-12.076 20.931 20.93 4.025c8.856 5.636 20.127 8.05 30.592 5.636l37.031 7.245z">
      </path>
      <path fill="url(#a)"
        d="M128 29.683S85.333-1.713 52.327 5.532l-2.415.805c-4.83 1.61-8.855 4.025-11.27 7.245l-1.61 2.415-12.076 20.931 20.93 4.025c8.856 5.636 20.127 8.05 30.592 5.636l37.031 7.245z"
        opacity=".3"></path>
      <path fill="#518ac8"
        d="m38.642 29.683-3.22.805C21.735 34.513 17.71 47.394 24.955 58.664c8.05 10.465 24.956 16.1 38.641 12.076l49.912-16.906S70.843 22.438 38.642 29.683z">
      </path>
      <path fill="url(#b)"
        d="m38.642 29.683-3.22.805C21.735 34.513 17.71 47.394 24.955 58.664c8.05 10.465 24.956 16.1 38.641 12.076l49.912-16.906S70.843 22.438 38.642 29.683z"
        opacity=".3"></path>
      <path fill="url(#c)"
        d="M104.654 65.91a36.226 36.226 0 0 0-38.641-12.076L16.1 69.934 0 98.111l90.164 15.295 16.1-28.981c3.22-5.635 2.415-12.075-1.61-18.516z">
      </path>
      <path fill="url(#d)"
        d="M88.553 94.085A36.226 36.226 0 0 0 49.912 82.01L0 98.11s42.667 32.202 75.673 24.152l2.415-.806c13.686-4.025 18.516-16.905 10.465-27.37z">
      </path>
    </symbol>

    <!-- Tailwind icon -->
    <symbol id="tailwind" viewBox="0 0 128 128">
      <path
        d="M64.004 25.602c-17.067 0-27.73 8.53-32 25.597 6.398-8.531 13.867-11.73 22.398-9.597 4.871 1.214 8.352 4.746 12.207 8.66C72.883 56.629 80.145 64 96.004 64c17.066 0 27.73-8.531 32-25.602-6.399 8.536-13.867 11.735-22.399 9.602-4.87-1.215-8.347-4.746-12.207-8.66-6.27-6.367-13.53-13.738-29.394-13.738zM32.004 64c-17.066 0-27.73 8.531-32 25.602C6.402 81.066 13.87 77.867 22.402 80c4.871 1.215 8.352 4.746 12.207 8.66 6.274 6.367 13.536 13.738 29.395 13.738 17.066 0 27.73-8.53 32-25.597-6.399 8.531-13.867 11.73-22.399 9.597-4.87-1.214-8.347-4.746-12.207-8.66C55.128 71.371 47.868 64 32.004 64zm0 0"
        fill="#38bdf8"></path>
    </symbol>

    <!-- Devicon icon -->
    <symbol id="devicon" viewBox="0 0 128 128">
      <path fill="#558d6c" d="M4.92 8l10.17 87.05L64 119.95V8H4.92z"></path>
      <path fill="#5aa579" d="M64 8v111.95l.05.05 48.93-24.91L123.08 8H64z"></path>
      <path fill="#60be86" d="M18.84 22.11l6.49 65.18L64 105.97V22.11H18.84z"></path>
      <path fill="#65d693" d="M64 22.11v83.86l.05.05 38.69-18.76 6.42-65.15H64z"></path>
      <path fill="#5aa579"
        d="M105.72 54.9L73.14 39.42l-1.83-.9-1.12 2.28L64 53.41V68.3l9.15-18.08 21.5 9.57-23.09 10.37-.87.47v10.88L73 80.38l32.78-15.69a2 2 0 00.92-2v-5.78a2 2 0 00-.98-2.01z">
      </path>
      <path fill="#558d6c"
        d="M56 69.39l-21.79-9.6 23.3-10.37 1.76-.7V37.76l-3.4 1.44-33.93 15.69a2.26 2.26 0 00-1.28 2v5.77a2.22 2.22 0 001.24 2l33.44 15.52 2 .9 1.21-2.26L64 68.3V53.41z">
      </path>
    </symbol>
  </defs>
</svg>